<?xml version="1.0" encoding="utf-8"?>
<!-- Generator: Adobe Illustrator 25.4.1, SVG Export Plug-In . SVG Version: 6.00 Build 0)  -->
<svg version="1.1" id="Layer_1" xmlns="http://www.w3.org/2000/svg" xmlns:xlink="http://www.w3.org/1999/xlink" x="0px" y="0px"
	 viewBox="0 0 1400 487" style="enable-background:new 0 0 1400 487;" xml:space="preserve">
<style type="text/css">
	.st0{fill:#0C3148;}
</style>
<g>
	<g id="XMLID_36_">
		<path id="XMLID_37_" class="st0" d="M165.08,241.67V134.45H45.95v107.22H0V3.41h45.95v90.2h119.13V3.41h45.95v238.26H165.08z"/>
		<path id="XMLID_39_" class="st0" d="M420.49,241.67H372.5L474.61,3.41h32.34l102.11,238.26h-47.99l-22.46-52.76h-95.64
			L420.49,241.67z M490.61,77.61l-30.29,70.46h60.59L490.61,77.61z"/>
		<path id="XMLID_42_" class="st0" d="M878.76,40.85c-22.46,0-41.3,7.95-56.5,23.82c-15.21,15.89-22.8,35.18-22.8,57.86
			c0,23.15,7.83,42.55,23.48,58.21c15.66,15.66,34.94,23.48,57.87,23.48c19.96,0,37.66-6.13,53.1-18.38v-51.39h-61.27V93.61h107.22
			v105.85c-10.89,13.85-25.02,24.91-42.38,33.19c-17.36,8.29-36.59,12.43-57.69,12.43c-36.76,0-67-11.74-90.71-35.23
			c-23.72-23.48-35.57-52.59-35.57-87.3s11.8-63.82,35.4-87.3C812.5,11.74,842.57,0,879.1,0c34.72,0,63.76,11.35,87.14,34.04
			l-29.61,31.31C920.29,49.02,901,40.85,878.76,40.85z"/>
		<path id="XMLID_44_" class="st0" d="M1186.41,209.67c-23.26-23.6-34.89-52.64-34.89-87.14c0-34.49,11.63-63.53,34.89-87.14
			c23.26-23.6,53.04-35.4,89.35-35.4c36.3,0,66.09,11.8,89.35,35.4C1388.37,59,1400,88.05,1400,122.54
			c0,34.49-11.63,63.54-34.89,87.14c-23.26,23.6-53.05,35.4-89.35,35.4C1239.46,245.07,1209.67,233.28,1186.41,209.67z
			 M1219.94,64.67c-14.97,15.89-22.46,35.18-22.46,57.86c0,22.69,7.49,41.98,22.46,57.86c14.97,15.89,33.58,23.82,55.82,23.82
			c22.24,0,40.84-7.94,55.82-23.82c14.98-15.88,22.46-35.17,22.46-57.86c0-22.69-7.49-41.98-22.46-57.86
			c-14.97-15.88-33.58-23.82-55.82-23.82C1253.52,40.85,1234.91,48.79,1219.94,64.67z"/>
	</g>
	<g id="XMLID_1_">
		<path id="XMLID_2_" class="st0" d="M121.46,485.03v-49.5h-55v49.5H45.25v-110h21.21v41.65h55v-41.65h21.22v110H121.46z"/>
		<path id="XMLID_4_" class="st0" d="M240.11,408.82v76.22h-19.64v-6.13c-6.08,5.14-13.15,7.7-21.21,7.7
			c-11.74,0-21.32-4.3-28.76-12.89c-6.5-7.54-9.74-16.45-9.74-26.72c0-11.21,3.64-20.64,10.92-28.29
			c7.28-7.65,16.11-11.47,26.48-11.47c8.59,0,16.03,2.57,22.32,7.7v-6.13H240.11z M219.68,458.32v-22.79
			c-4.72-6.28-11-9.43-18.86-9.43c-5.76,0-10.48,2.07-14.14,6.21c-3.67,4.14-5.5,9.04-5.5,14.69c0,5.97,1.91,10.92,5.74,14.85
			c3.82,3.93,8.62,5.89,14.38,5.89C209.15,467.75,215.28,464.6,219.68,458.32z"/>
		<path id="XMLID_7_" class="st0" d="M274.68,408.82l20.9,46.52l20.9-46.52h21.22l-35.04,76.22h-14.14l-35.04-76.22H274.68z"/>
		<path id="XMLID_9_" class="st0" d="M401.97,461.31l11.63,11.63c-3.67,4.3-8.3,7.65-13.91,10.06c-5.61,2.41-11.39,3.61-17.36,3.61
			c-11.53,0-21.06-3.64-28.6-10.92c-7.55-7.28-11.31-16.84-11.31-28.68c0-11,3.43-20.37,10.29-28.13
			c6.86-7.75,15.79-11.63,26.79-11.63c10.37,0,18.96,3.8,25.77,11.39c6.81,7.6,10.22,16.79,10.22,27.58c0,2.2-0.16,4.14-0.47,5.81
			h-52.8c0.52,5.34,2.72,9.69,6.6,13.04c3.88,3.36,8.54,5.03,13.99,5.03C390.13,470.1,396.52,467.17,401.97,461.31z M363.16,437.1
			h31.43c-0.31-3.56-1.91-6.68-4.79-9.35c-2.88-2.67-6.31-4-10.3-4c-4.08,0-7.7,1.33-10.84,4
			C365.51,430.43,363.68,433.54,363.16,437.1z"/>
		<path id="XMLID_12_" class="st0" d="M482.43,485.03h-22.16l47.15-110h14.93l47.14,110h-22.16l-10.37-24.36H492.8L482.43,485.03z
			 M514.8,409.29l-13.99,32.53h27.97L514.8,409.29z"/>
		<path id="XMLID_15_" class="st0" d="M671.32,392.31c-10.37,0-19.07,3.67-26.09,11c-7.02,7.34-10.53,16.24-10.53,26.72
			c0,10.69,3.62,19.64,10.84,26.87c7.23,7.23,16.13,10.84,26.72,10.84c9.22,0,17.39-2.83,24.51-8.49v-23.73h-28.29v-18.86h49.5
			v48.87c-5.03,6.39-11.55,11.5-19.57,15.32c-8.02,3.83-16.89,5.74-26.64,5.74c-16.97,0-30.93-5.42-41.88-16.27
			c-10.95-10.84-16.42-24.28-16.42-40.31c0-16.03,5.45-29.47,16.34-40.31c10.89-10.84,24.78-16.27,41.65-16.27
			c16.03,0,29.44,5.24,40.23,15.72l-13.67,14.46C690.49,396.09,681.59,392.31,671.32,392.31z"/>
		<path id="XMLID_17_" class="st0" d="M745.34,475.13c-7.75-7.64-11.63-17.02-11.63-28.13c0-11.1,3.88-20.5,11.63-28.21
			c7.75-7.7,17.39-11.55,28.91-11.55c11.52,0,21.16,3.85,28.92,11.55c7.75,7.7,11.63,17.1,11.63,28.21
			c0,11.11-3.88,20.49-11.63,28.13c-7.76,7.65-17.39,11.47-28.92,11.47C762.72,486.61,753.09,482.78,745.34,475.13z M759.79,432.15
			c-3.77,4.03-5.66,8.98-5.66,14.85c0,5.87,1.89,10.79,5.66,14.77c3.77,3.98,8.59,5.97,14.46,5.97s10.69-1.99,14.46-5.97
			c3.77-3.98,5.66-8.9,5.66-14.77c0-5.86-1.89-10.82-5.66-14.85c-3.77-4.03-8.59-6.05-14.46-6.05S763.57,428.12,759.79,432.15z"/>
		<path id="XMLID_20_" class="st0" d="M839,475.13c-7.75-7.64-11.63-17.02-11.63-28.13c0-11.1,3.88-20.5,11.63-28.21
			c7.75-7.7,17.39-11.55,28.91-11.55c11.52,0,21.16,3.85,28.92,11.55c7.75,7.7,11.63,17.1,11.63,28.21
			c0,11.11-3.88,20.49-11.63,28.13c-7.76,7.65-17.39,11.47-28.92,11.47C856.38,486.61,846.75,482.78,839,475.13z M853.45,432.15
			c-3.77,4.03-5.66,8.98-5.66,14.85c0,5.87,1.89,10.79,5.66,14.77c3.77,3.98,8.59,5.97,14.46,5.97c5.87,0,10.69-1.99,14.46-5.97
			c3.77-3.98,5.66-8.9,5.66-14.77c0-5.86-1.89-10.82-5.66-14.85c-3.77-4.03-8.59-6.05-14.46-6.05
			C862.04,426.1,857.22,428.12,853.45,432.15z"/>
		<path id="XMLID_23_" class="st0" d="M1000.39,485.03h-19.64v-6.13c-6.08,5.14-13.15,7.7-21.22,7.7c-11.74,0-21.32-4.3-28.76-12.89
			c-6.5-7.54-9.74-16.45-9.74-26.72c0-11.21,3.64-20.64,10.92-28.29c7.28-7.65,16.11-11.47,26.48-11.47
			c8.38,0,15.56,2.36,21.53,7.07v-40.86h20.43V485.03z M979.96,458.32v-22.79c-4.71-6.28-11-9.43-18.86-9.43
			c-5.76,0-10.48,2.07-14.14,6.21c-3.67,4.14-5.5,9.04-5.5,14.69c0,5.97,1.91,10.92,5.74,14.85c3.82,3.93,8.61,5.89,14.38,5.89
			C969.43,467.75,975.56,464.6,979.96,458.32z"/>
		<path id="XMLID_27_" class="st0" d="M1075.42,470.26c-10.74-10.89-16.11-24.3-16.11-40.23c0-15.92,5.37-29.33,16.11-40.23
			c10.74-10.9,24.49-16.35,41.25-16.35c16.76,0,30.51,5.45,41.25,16.35c10.74,10.89,16.11,24.3,16.11,40.23
			c0,15.92-5.37,29.33-16.11,40.23c-10.74,10.9-24.49,16.35-41.25,16.35C1099.91,486.61,1086.16,481.16,1075.42,470.26z
			 M1090.9,403.31c-6.91,7.34-10.37,16.24-10.37,26.72c0,10.48,3.46,19.38,10.37,26.72c6.92,7.33,15.5,11,25.77,11
			c10.27,0,18.86-3.67,25.77-11c6.91-7.33,10.37-16.24,10.37-26.72c0-10.47-3.46-19.38-10.37-26.72c-6.92-7.33-15.51-11-25.77-11
			C1106.4,392.31,1097.82,395.98,1090.9,403.31z"/>
		<path id="XMLID_30_" class="st0" d="M1210.96,485.03h-20.43v-76.22h19.64v6.13c6.28-5.13,13.46-7.7,21.53-7.7
			c10.79,0,19.59,4.09,26.4,12.26c5.24,6.19,7.86,15.09,7.86,26.72v38.82h-20.43v-40.39c0-6.49-1.52-11.26-4.56-14.3
			c-2.83-2.83-6.66-4.24-11.47-4.24c-3.88,0-7.52,0.97-10.92,2.91c-3.41,1.94-5.95,4.11-7.62,6.52V485.03z"/>
		<path id="XMLID_33_" class="st0" d="M1341.24,461.31l11.63,11.63c-3.67,4.3-8.3,7.65-13.91,10.06
			c-5.61,2.41-11.39,3.61-17.36,3.61c-11.53,0-21.06-3.64-28.6-10.92c-7.55-7.28-11.31-16.84-11.31-28.68
			c0-11,3.43-20.37,10.29-28.13c6.86-7.75,15.79-11.63,26.79-11.63c10.37,0,18.96,3.8,25.77,11.39c6.81,7.6,10.22,16.79,10.22,27.58
			c0,2.2-0.16,4.14-0.47,5.81h-52.8c0.52,5.34,2.72,9.69,6.6,13.04c3.88,3.36,8.54,5.03,13.99,5.03
			C1329.4,470.1,1335.79,467.17,1341.24,461.31z M1302.42,437.1h31.43c-0.31-3.56-1.91-6.68-4.79-9.35c-2.88-2.67-6.31-4-10.3-4
			c-4.08,0-7.7,1.33-10.84,4C1304.78,430.43,1302.94,433.54,1302.42,437.1z"/>
	</g>
</g>
</svg>
